<svg width="36" height="36" viewBox="0 0 36 36" fill="none" xmlns="http://www.w3.org/2000/svg">
<rect x="6" y="12" width="23" height="18" fill="white"/>
<rect x="10" y="11" width="16" height="18" fill="white"/>
<rect x="4" y="16" width="27" height="11" fill="white"/>
<rect x="15" y="2" width="5" height="4" fill="white"/>
<path d="M32.6087 17.2164H32.3551C31.3134 12.5606 27.1558 9.0642 22.192 9.0642H19.0217V7.90478C20.5978 7.34319 21.7391 5.84862 21.7391 4.08232C21.7391 1.83594 19.9094 0.00623171 17.663 0.00623171C15.4167 0.00623171 13.587 1.83594 13.587 4.08232C13.587 5.84862 14.7283 7.34319 16.3043 7.90478V9.0642H13.1341C8.17029 9.0642 4.01268 12.5606 2.97101 17.2164H2.71739C1.22283 17.2164 0 18.4392 0 19.9338V22.6512C0 24.1457 1.22283 25.3685 2.71739 25.3685H3.21558C4.28442 28.7019 6.98369 31.2925 10.3714 32.2345C10.1178 32.7689 9.96377 33.3486 9.96377 33.9736C9.96377 34.7254 10.5707 35.3323 11.3225 35.3323H24.0036C24.7554 35.3323 25.3623 34.7254 25.3623 33.9736C25.3623 33.3486 25.2083 32.7599 24.9547 32.2345C28.3424 31.3015 31.0417 28.7019 32.1105 25.3685H32.6087C34.1033 25.3685 35.3261 24.1457 35.3261 22.6512V19.9338C35.3261 18.4392 34.1033 17.2164 32.6087 17.2164ZM17.663 2.72362C18.4149 2.72362 19.0217 3.33051 19.0217 4.08232C19.0217 4.83413 18.4149 5.44101 17.663 5.44101C16.9112 5.44101 16.3043 4.83413 16.3043 4.08232C16.3043 3.33051 16.9112 2.72362 17.663 2.72362ZM22.192 29.8975H13.1341C8.88587 29.8975 5.43478 26.4464 5.43478 22.1983V19.4809C5.43478 15.2327 8.88587 11.7816 13.1341 11.7816H22.192C26.4402 11.7816 29.8913 15.2327 29.8913 19.4809V22.1983C29.8913 26.4464 26.4402 29.8975 22.192 29.8975Z" fill="#2F2F2F"/>
<path d="M12.6812 15.4048C11.1866 15.4048 9.96377 16.6276 9.96377 18.1222V20.8396C9.96377 22.3341 11.1866 23.557 12.6812 23.557C14.1757 23.557 15.3985 22.3341 15.3985 20.8396V18.1222C15.3985 16.6276 14.1757 15.4048 12.6812 15.4048Z" fill="#2F2F2F"/>
<path d="M22.6449 15.4048C21.1504 15.4048 19.9275 16.6276 19.9275 18.1222V20.8396C19.9275 22.3341 21.1504 23.557 22.6449 23.557C24.1395 23.557 25.3623 22.3341 25.3623 20.8396V18.1222C25.3623 16.6276 24.1395 15.4048 22.6449 15.4048Z" fill="#2F2F2F"/>
<path d="M8.17935 2.65116L10.8967 3.55696C11.0417 3.60225 11.1866 3.62942 11.3225 3.62942C11.8931 3.62942 12.4185 3.2671 12.6087 2.69645C12.8442 1.98087 12.4638 1.21094 11.7482 0.975435L9.0308 0.0696379C8.32427 -0.165869 7.55435 0.214565 7.30978 0.930145C7.06522 1.64572 7.45471 2.41565 8.17029 2.65116H8.17935Z" fill="#2F2F2F"/>
<path d="M8.60507 8.1584C8.75 8.1584 8.89493 8.14029 9.0308 8.08594L11.7482 7.18014C12.4638 6.94464 12.8442 6.17471 12.6087 5.45913C12.3732 4.74355 11.6033 4.36311 10.8877 4.59862L8.17029 5.50442C7.45471 5.73993 7.07427 6.50985 7.30978 7.22543C7.5 7.79609 8.02536 8.1584 8.59601 8.1584H8.60507Z" fill="#2F2F2F"/>
<path d="M24.0036 3.62942C24.1485 3.62942 24.2935 3.6113 24.4293 3.55696L27.1467 2.65116C27.8623 2.41565 28.2427 1.64572 28.0072 0.930145C27.7717 0.214565 27.0018 -0.165869 26.2862 0.0696379L23.5688 0.975435C22.8533 1.21094 22.4728 1.98087 22.7083 2.69645C22.8985 3.2671 23.4239 3.62942 23.9946 3.62942H24.0036Z" fill="#2F2F2F"/>
<path d="M23.5779 7.18014L26.2953 8.08594C26.4402 8.13123 26.5851 8.1584 26.721 8.1584C27.2917 8.1584 27.817 7.79609 28.0072 7.22543C28.2427 6.50985 27.8623 5.73993 27.1467 5.50442L24.4293 4.59862C23.7228 4.36311 22.9438 4.74355 22.7083 5.45913C22.4728 6.17471 22.8533 6.94464 23.5688 7.18014H23.5779Z" fill="#2F2F2F"/>
</svg>
